HIERARCHY
ROOT Pelvis
{
	OFFSET 0.000000 0.000000 0.000000
	CHANNELS 6 Xposition Yposition Zposition Zrotation Yrotation Xrotation 
	JOINT Left_hip
	{
		OFFSET 0.069463 -0.088608 -0.009542
		CHANNELS 3 Zrotation Yrotation Xrotation
		JOINT Left_knee
		{
			OFFSET 0.030639 -0.359740 -0.005288
			CHANNELS 3 Zrotation Yrotation Xrotation
			JOINT Left_ankle
			{
				OFFSET -0.011068 -0.376034 -0.042462
				CHANNELS 3 Zrotation Yrotation Xrotation
				JOINT Left_foot
				{
					OFFSET 0.023192 -0.053321 0.111332
					CHANNELS 3 Zrotation Yrotation Xrotation
					End Site
					{
						OFFSET 0.000000 0.000000 0.000000
					}
				}
			}
		}
	}
	JOINT Right_hip
	{
		OFFSET -0.067438 -0.088025 -0.006263
		CHANNELS 3 Zrotation Yrotation Xrotation
		JOINT Right_knee
		{
			OFFSET -0.035962 -0.366229 -0.008063
			CHANNELS 3 Zrotation Yrotation Xrotation
			JOINT Right_ankle
			{
				OFFSET 0.013608 -0.375719 -0.040481
				CHANNELS 3 Zrotation Yrotation Xrotation
				JOINT Right_foot
				{
					OFFSET -0.021034 -0.045527 0.114617
					CHANNELS 3 Zrotation Yrotation Xrotation
					End Site
					{
						OFFSET 0.000000 0.000000 0.000000
					}
				}
			}
		}
	}
	JOINT Spine1
	{
		OFFSET -0.002610 0.101823 -0.019986
		CHANNELS 3 Zrotation Yrotation Xrotation
		JOINT Spine2
		{
			OFFSET 0.004114 0.128714 -0.000938
			CHANNELS 3 Zrotation Yrotation Xrotation
			JOINT Spine3
			{
				OFFSET 0.002191 0.048470 0.027684
				CHANNELS 3 Zrotation Yrotation Xrotation
				JOINT Neck
				{
					OFFSET -0.002856 0.198873 -0.044022
					CHANNELS 3 Zrotation Yrotation Xrotation
					JOINT Head
					{
						OFFSET 0.002981 0.062960 0.049860
						CHANNELS 3 Zrotation Yrotation Xrotation
						End Site
						{
							OFFSET 0.000000 0.000000 0.000000
						}
					}
				}
				JOINT Left_collar
				{
					OFFSET 0.073708 0.112550 -0.033440
					CHANNELS 3 Zrotation Yrotation Xrotation
					JOINT Left_shoulder
					{
						OFFSET 0.083291 0.030786 -0.008013
						CHANNELS 3 Zrotation Yrotation Xrotation
						JOINT Left_elbow
						{
							OFFSET 0.245601 -0.011792 -0.027873
							CHANNELS 3 Zrotation Yrotation Xrotation
							JOINT Left_wrist
							{
								OFFSET 0.232258 0.008622 -0.000487
								CHANNELS 3 Zrotation Yrotation Xrotation
								JOINT Left_palm
								{
									OFFSET 0.077300 -0.009457 -0.012851
									CHANNELS 3 Zrotation Yrotation Xrotation
									End Site
									{
										OFFSET 0.000000 0.000000 0.000000
									}
								}
							}
						}
					}
				}
				JOINT Right_collar
				{
					OFFSET -0.075339 0.110574 -0.037874
					CHANNELS 3 Zrotation Yrotation Xrotation
					JOINT Right_shoulder
					{
						OFFSET -0.086522 0.031207 -0.009986
						CHANNELS 3 Zrotation Yrotation Xrotation
						JOINT Right_elbow
						{
							OFFSET -0.237313 -0.011478 -0.019859
							CHANNELS 3 Zrotation Yrotation Xrotation
							JOINT Right_wrist
							{
								OFFSET -0.237599 0.007976 -0.003742
								CHANNELS 3 Zrotation Yrotation Xrotation
								JOINT Right_palm
								{
									OFFSET -0.076920 -0.006943 -0.009920
									CHANNELS 3 Zrotation Yrotation Xrotation
									End Site
									{
										OFFSET 0.000000 0.000000 0.000000
									}
								}
							}
						}
					}
				}
			}
		}
	}
}
MOTION
Frames: 12
Frame Time: 0.100000
0.000000 0.000000 0.000000 176.524846 27.974142 -26.518176 3.140347 4.360446 18.526114 1.486401 -12.011410 -3.103000 3.793529 5.782425 -4.392906 -8.410567 8.713045 -3.032461 -2.452555 -6.276398 21.815453 -1.056657 0.215528 -3.788884 -6.991669 -8.636832 -7.860228 12.956778 -3.360373 10.470510 0.853733 1.100388 4.242317 0.239074 -3.583569 6.598564 -0.470069 -2.813989 -0.530637 -0.826515 -10.313518 14.338209 -3.378076 -10.870995 6.159029 -31.668586 1.992532 6.517167 -51.133442 -7.432455 7.127762 2.561282 -16.148350 12.796590 -14.025525 3.768871 -4.406386 -7.438788 -3.203008 -8.178880 32.553735 3.115731 4.696838 52.617546 3.231353 10.555417 -6.489606 10.740063 -3.335559 9.240376 -4.265828 -2.962137 10.582279 8.208860 -3.076119 
0.000440 0.000480 -0.002941 176.572369 27.631334 -26.329715 3.079783 4.438190 18.184638 1.468524 -11.775768 -3.030392 3.639275 5.856815 -4.355854 -8.210882 8.643802 -3.030914 -2.408451 -6.176080 21.251519 -1.122163 0.235132 -3.490101 -6.688470 -8.413825 -7.840948 12.635643 -3.464657 10.173853 0.970351 1.001627 4.742715 0.235439 -3.570475 6.489001 -0.362277 -2.814989 -0.574031 -0.761901 -10.061056 13.014878 -3.092238 -10.598444 5.019298 -31.672469 2.108229 6.366395 -51.487731 -7.206891 7.034994 2.818047 -16.292371 12.368114 -13.764060 3.560580 -4.634987 -7.404413 -3.188942 -8.141473 32.400185 2.995660 4.598690 52.807561 3.041247 10.456252 -6.683892 10.991111 -3.748087 9.129935 -4.139990 -3.300289 10.538130 8.152586 -3.114026 
0.000801 0.001337 -0.007295 176.524829 27.740407 -25.887601 2.912894 4.389646 17.210419 1.346383 -11.561579 -2.639013 3.746357 5.778418 -4.383355 -8.408583 8.545278 -2.871415 -2.383896 -6.111313 20.371104 -1.117956 0.017011 -3.217201 -6.836829 -8.239927 -7.897967 12.799136 -3.929977 10.218126 1.110818 0.813630 5.494204 0.259603 -3.765914 6.052768 -0.235165 -2.926811 -0.870936 -0.731366 -10.031988 11.715033 -2.706484 -10.472661 3.717397 -31.716344 1.811486 6.402764 -51.650916 -7.076860 7.054346 2.839054 -15.632274 12.269332 -13.921076 3.474023 -4.676344 -7.357021 -3.136435 -8.255025 32.304461 3.107120 4.603914 52.888073 2.959054 10.124432 -6.791758 10.281282 -4.353021 9.282685 -4.092489 -3.813410 10.405852 8.098138 -3.116770 
0.001758 0.002628 -0.010038 176.539247 28.010001 -25.849599 2.779478 4.390932 16.704422 1.293799 -11.851559 -1.944017 3.784900 5.741223 -4.731778 -8.456612 8.613296 -3.009578 -2.251493 -5.756624 19.339516 -1.254138 -0.281730 -1.293004 -7.174188 -8.497744 -9.114939 13.105397 -4.378695 10.133093 1.073897 0.574750 6.167117 0.328927 -3.866236 5.834122 -0.204741 -3.089124 -0.802041 -0.364424 -9.905617 10.956945 -2.521241 -10.474079 3.021325 -31.642512 1.820980 6.328035 -51.698862 -7.055768 7.114765 2.962298 -16.176104 12.481877 -13.842943 3.544371 -4.404601 -7.270951 -3.002811 -8.346994 32.190542 2.818701 4.262687 53.253488 2.782194 9.739364 -7.634069 10.730524 -5.306899 9.285572 -4.016577 -4.416375 10.122697 7.981152 -3.017973 
0.001073 0.002455 -0.007168 176.598961 28.403492 -25.921833 2.737870 4.540085 16.986928 1.317511 -12.047085 -1.951229 3.703974 5.596883 -4.755668 -8.435663 8.567114 -3.109065 -2.397587 -5.817955 19.582038 -1.272165 -0.401035 -0.959610 -7.198520 -8.648609 -9.352702 13.113681 -4.363424 10.053195 1.153463 0.409549 6.153961 0.316287 -4.029291 5.909652 -0.247385 -3.238913 -0.755267 -0.383249 -9.788525 10.915365 -2.559931 -10.241295 2.818550 -31.705383 1.940035 6.407198 -51.623002 -6.890308 7.002788 2.883299 -16.090725 12.532386 -13.850858 3.568021 -4.469566 -7.305563 -3.005189 -8.380503 32.174097 2.454513 4.196275 53.303586 2.370029 9.552734 -7.825582 10.921135 -5.588317 9.267853 -3.978498 -4.651709 10.136430 7.985027 -2.964414 
0.000785 0.001227 0.000090 176.715327 28.472847 -25.689193 3.039295 4.653929 17.375731 1.247845 -12.314292 -2.155435 3.427894 5.548890 -4.971654 -8.188553 8.399580 -3.350153 -2.464675 -5.990016 19.932246 -1.202839 -0.311671 -0.981245 -7.166513 -8.587746 -10.196302 13.063456 -4.557807 9.958485 1.231136 0.485758 5.605730 0.300578 -3.932484 5.692041 -0.276959 -3.188390 -0.687007 -0.316790 -9.559951 11.286030 -2.533880 -9.961256 3.039070 -31.580836 2.459781 6.146863 -51.968081 -6.842316 6.793108 3.193346 -15.696532 12.220845 -13.753426 3.617605 -4.661790 -7.285484 -2.937627 -8.263494 31.882227 1.666310 4.120392 53.642842 1.704828 9.271444 -8.193257 10.620572 -5.817424 9.356593 -4.053033 -5.103640 10.046914 7.919106 -2.885302 
0.007829 0.000248 0.011909 176.764552 28.660604 -25.061884 3.902757 4.752879 17.717713 1.406444 -13.013987 -2.819665 2.617373 5.918563 -6.185280 -7.243253 8.229297 -3.756041 -1.825948 -6.136007 19.219206 -1.272037 -0.916543 0.832998 -8.010093 -10.147997 -14.523184 13.579714 -5.013774 10.227888 0.896076 0.268931 5.361037 0.126821 -3.863528 4.866574 -0.403203 -3.398866 -0.392461 0.344934 -9.083902 11.125517 -2.353878 -10.064974 3.469976 -31.193460 3.499603 5.717335 -51.654291 -6.389304 6.426678 3.422497 -16.623037 12.193747 -12.893904 3.573971 -4.696284 -6.658304 -2.544089 -7.950976 31.435981 0.192281 3.671797 54.425789 0.014129 9.390343 -8.661110 12.755780 -4.922470 9.198554 -3.706946 -5.845871 9.101495 7.590825 -2.388748 
0.023423 -0.000540 0.033794 176.455368 29.310390 -24.656718 4.995537 4.279402 17.209951 1.962974 -13.490104 -1.778769 1.997124 6.227705 -6.402552 -6.770119 7.984026 -4.075388 -0.276012 -6.427622 20.031161 -1.071571 -0.866933 0.196788 -8.763908 -11.067575 -16.331105 14.016043 -5.345592 10.652523 -0.149883 0.302831 5.297542 -0.153673 -4.196359 4.475990 -0.477042 -3.762865 -0.094841 0.620967 -8.624917 11.742649 -1.823417 -9.945736 3.946461 -30.573069 4.131234 5.674963 -50.520410 -6.255820 5.697164 3.912917 -16.276400 11.191005 -12.472440 3.839243 -4.984472 -6.248984 -2.435449 -7.601804 31.327446 -1.128959 3.354698 55.545637 -1.535875 9.347989 -8.700892 13.245460 -4.231903 9.484846 -3.643898 -6.950618 8.758028 7.453440 -1.897885 
0.045262 0.007658 0.054046 175.365053 29.158648 -25.029359 4.756296 1.456880 8.198400 1.992327 -11.603089 16.184748 3.980585 8.711983 -8.892032 -8.691762 8.061160 -5.888629 2.224278 -7.151030 21.453630 -0.579311 0.599642 -1.521404 -9.923335 -9.948524 -15.812467 14.180357 -6.395399 11.623827 -0.108615 1.575440 7.669407 -0.212194 -4.428116 2.823411 -0.328920 -3.428766 0.540885 -0.530107 -8.192278 12.343338 -2.070158 -8.629162 5.670252 -30.245332 4.178545 5.118703 -49.628172 -6.533009 5.266327 4.722762 -16.150138 10.568126 -13.078572 4.586246 -5.325578 -6.509207 -2.588175 -6.112490 31.792407 -1.144091 3.218376 55.652044 -1.445911 8.851458 -7.682237 9.314229 -4.243624 9.837339 -4.244280 -7.346166 9.446745 7.706974 -1.527394 
0.056943 0.013093 0.074501 173.845744 30.458109 -25.712448 3.284706 -2.810116 -8.612955 1.244190 -3.627714 44.054241 6.018068 11.885604 -7.059489 -10.330646 8.760193 -9.795027 4.462382 -8.155747 23.087265 -0.444709 1.313715 -3.202049 -11.215927 -9.856054 -14.691548 12.285865 -6.267933 11.803492 0.939527 4.010667 12.050207 0.536527 -4.520291 1.289261 0.593176 -2.679435 1.261360 -2.153044 -9.707127 9.811946 -1.694881 -7.806545 6.082844 -30.745991 3.364095 4.701133 -51.419344 -7.052100 5.873162 5.752093 -18.081280 10.346243 -13.987712 4.689255 -6.934937 -6.610458 -2.660447 -4.191507 32.207779 0.654071 3.895780 53.651195 -0.406514 8.418166 -7.241193 5.189162 -5.837586 9.163531 -5.017507 -7.108267 9.707537 7.628465 -1.196438 
0.049374 0.006154 0.103853 175.946382 29.149368 -23.789429 0.513949 -3.423053 -18.809726 -0.326158 4.118759 43.765741 6.858459 10.607712 -6.057106 -10.235811 9.761428 -9.368710 3.560051 -8.817158 24.590463 -1.423802 1.968375 -4.523128 -9.156962 -8.793471 -13.483311 9.794297 -4.920261 9.623635 1.503403 6.277794 15.093273 -0.135602 -3.854502 -0.092189 -0.037794 -1.291200 1.841504 -2.306053 -9.927895 8.054490 -1.565782 -8.071446 6.246691 -30.235733 4.404030 4.270877 -53.377137 -5.405326 6.159048 5.460649 -17.330856 11.213910 -14.003628 3.580323 -7.064375 -6.463180 -2.474257 -4.860260 30.680850 1.495203 3.881257 54.301367 1.945886 8.668972 -7.136925 4.832521 -6.407450 7.994777 -4.466413 -6.821429 9.704325 7.411085 -1.627200 
0.029624 -0.000222 0.146622 177.829860 25.155237 -21.758480 -1.265472 -2.425412 -21.178396 -0.602341 7.262245 24.064863 3.841186 9.566189 -2.743636 -4.670006 9.990893 -6.885455 2.313745 -8.744639 27.267271 -2.191043 3.777071 -5.835674 -7.329245 -7.796217 -13.822137 9.384833 -4.564087 8.165496 2.694147 6.843887 16.039155 -0.758074 -3.458185 0.669107 -0.345336 -0.351062 2.213240 -2.932187 -7.385352 5.065900 -3.790133 -7.658838 4.714635 -30.625833 6.296793 3.700862 -55.715623 -1.330671 6.744540 5.312956 -15.024160 11.118494 -12.916234 2.316934 -6.629871 -6.331783 -2.277102 -7.495907 29.630816 2.577884 3.417448 52.799439 6.280443 9.517323 -7.659409 8.386264 -7.744285 6.063617 -2.723872 -6.394434 9.599945 6.843189 -2.961434 
